REM MD5 180f79573268856c0de8ee97b744bcfb
FILE "Hyper PlayStation Re-mix 1999 No. 6 (Japan).bin" BINARY
  TRACK 01 MODE2/2352
    INDEX 01 00:00:00
  TRACK 02 AUDIO
    INDEX 00 61:54:52
    INDEX 01 61:57:52
  TRACK 03 AUDIO
    INDEX 00 62:02:27
    INDEX 01 62:05:27
  TRACK 04 AUDIO
    INDEX 00 63:12:61
    INDEX 01 63:16:61
REM LEADOUT 66:48:51
